<svg width="46" height="46" viewBox="0 0 46 46" fill="none" xmlns="http://www.w3.org/2000/svg">
<path d="M45.9999 23.2294C45.9999 34.7304 37.4771 44.2385 26.4053 45.7815C25.3701 45.9251 24.3109 46.0001 23.2358 46.0001C21.9948 46.0001 20.7762 45.9012 19.5894 45.7097C8.74891 43.9641 0.470215 34.5629 0.470215 23.2294C0.470215 10.6529 10.6631 0.457031 23.2342 0.457031C35.8054 0.457031 45.9999 10.6529 45.9999 23.2294Z" fill="#1877F2"/>
<path d="M26.4053 18.741V23.7017H32.5401L31.5687 30.3841H26.4053V45.7799C25.37 45.9236 24.3109 45.9986 23.2358 45.9986C21.9948 45.9986 20.7761 45.8996 19.5893 45.7082V30.3841H13.9314V23.7017H19.5893V17.6321C19.5893 13.8665 22.6408 10.8125 26.4069 10.8125V10.8157C26.418 10.8157 26.4276 10.8125 26.4388 10.8125H32.5417V16.5917H28.5539C27.3687 16.5917 26.4069 17.5539 26.4069 18.7394L26.4053 18.741Z" fill="white"/>
</svg>
