<svg width="47" height="46" viewBox="0 0 47 46" fill="none" xmlns="http://www.w3.org/2000/svg">
<path d="M23.7573 0.457031H23.6537C11.1096 0.457031 0.940674 10.629 0.940674 23.1767V23.2804C0.940674 35.8281 11.1096 46.0001 23.6537 46.0001H23.7573C36.3014 46.0001 46.4703 35.8281 46.4703 23.2804V23.1767C46.4703 10.629 36.3014 0.457031 23.7573 0.457031Z" fill="url(#paint0_linear_4724_9472)"/>
<path d="M30.7503 9.72266H16.6622C12.7701 9.72266 9.60376 12.8899 9.60376 16.7832V29.6756C9.60376 33.5688 12.7701 36.7361 16.6622 36.7361H30.7503C34.6424 36.7361 37.8087 33.5688 37.8087 29.6756V16.7832C37.8087 12.8899 34.6424 9.72266 30.7503 9.72266ZM12.0938 16.7832C12.0938 14.2637 14.1435 12.2134 16.6622 12.2134H30.7503C33.269 12.2134 35.3188 14.2637 35.3188 16.7832V29.6756C35.3188 32.195 33.269 34.2453 30.7503 34.2453H16.6622C14.1435 34.2453 12.0938 32.195 12.0938 29.6756V16.7832Z" fill="white"/>
<path d="M23.7064 29.7951C27.3257 29.7951 30.2719 26.8496 30.2719 23.2276C30.2719 19.6056 27.3273 16.6602 23.7064 16.6602C20.0855 16.6602 17.1409 19.6056 17.1409 23.2276C17.1409 26.8496 20.0855 29.7951 23.7064 29.7951ZM23.7064 19.1525C25.9539 19.1525 27.7819 20.981 27.7819 23.2292C27.7819 25.4774 25.9539 27.306 23.7064 27.306C21.4589 27.306 19.6309 25.4774 19.6309 23.2292C19.6309 20.981 21.4589 19.1525 23.7064 19.1525Z" fill="white"/>
<path d="M30.8796 17.7207C31.8542 17.7207 32.6486 16.9277 32.6486 15.9512C32.6486 14.9747 31.8558 14.1816 30.8796 14.1816C29.9034 14.1816 29.1106 14.9747 29.1106 15.9512C29.1106 16.9277 29.9034 17.7207 30.8796 17.7207Z" fill="white"/>
<defs>
<linearGradient id="paint0_linear_4724_9472" x1="7.59234" y1="39.3465" x2="39.8281" y2="7.12175" gradientUnits="userSpaceOnUse">
<stop stop-color="#FAAD4F"/>
<stop offset="0.35" stop-color="#DD2A7B"/>
<stop offset="0.62" stop-color="#9537B0"/>
<stop offset="1" stop-color="#515BD4"/>
</linearGradient>
</defs>
</svg>
