<svg width="46" height="46" viewBox="0 0 46 46" fill="none" xmlns="http://www.w3.org/2000/svg">
<path d="M45.9407 23.2928C45.9407 10.7522 35.7775 0.585938 23.2405 0.585938C10.7035 0.585938 0.540283 10.7522 0.540283 23.2928C0.540283 35.8335 10.7035 45.9997 23.2405 45.9997C35.7775 45.9997 45.9407 35.8335 45.9407 23.2928Z" fill="#FF0209"/>
<path d="M32.8762 33.3499C32.1998 33.4233 31.5075 33.4361 30.844 33.4345C25.6678 33.4297 20.4916 33.4249 15.317 33.4217C13.6884 33.4217 11.9146 33.369 10.6561 32.3335C9.23801 31.1639 8.94291 29.1359 8.82806 27.301C8.66855 24.7863 8.65579 22.2637 8.78659 19.7475C8.85837 18.3657 8.98438 16.9504 9.57936 15.6994C10.0069 14.8011 10.7199 13.9937 11.6323 13.5693C12.693 13.0763 13.8033 13.164 14.9454 13.1624C17.6794 13.1593 20.4135 13.1577 23.1475 13.1545C25.99 13.1513 28.8341 13.1497 31.6766 13.1465C33.0197 13.1465 34.4617 13.1736 35.5576 13.9507C36.9725 14.9527 37.3569 16.8594 37.5339 18.5843C37.8609 21.7611 37.8657 24.9714 37.5467 28.1483C37.4143 29.4582 37.1942 30.8432 36.3312 31.8373C35.4762 32.8234 34.2081 33.2031 32.8778 33.3483L32.8762 33.3499Z" fill="white"/>
<path d="M27.869 23.2928L20.155 18.8379V27.7477L27.869 23.2928Z" fill="#FF0209"/>
</svg>
