<svg width="1593" height="191" viewBox="0 0 1593 191" fill="none" xmlns="http://www.w3.org/2000/svg">
<g clip-path="url(#clip0_4745_7311)">
<rect width="1593" height="191" fill="#1B0E28"/>
<g filter="url(#filter0_f_4745_7311)">
<ellipse cx="1237.5" cy="244.444" rx="528" ry="216" transform="rotate(-10.0048 1237.5 244.444)" fill="#310947" fill-opacity="0.6"/>
</g>
<g filter="url(#filter1_f_4745_7311)">
<ellipse cx="202.398" cy="-219.201" rx="660" ry="321" transform="rotate(-9.91021 202.398 -219.201)" fill="#823744" fill-opacity="0.6"/>
</g>
<g style="mix-blend-mode:color-burn">
<mask id="mask0_4745_7311" style="mask-type:luminance" maskUnits="userSpaceOnUse" x="-91" y="-421" width="1684" height="1123">
<path d="M1593 -421H-91V701.667H1593V-421Z" fill="white"/>
</mask>
<g mask="url(#mask0_4745_7311)">
<path d="M1789.24 91.976L1690.17 149.19L1591.08 91.976L1690.17 34.748L1789.24 91.976Z" fill="white"/>
<path d="M1690.17 149.188V263.602L1591.08 206.374V91.9746L1690.17 149.188Z" fill="#ECECEC"/>
<path d="M1591.06 91.9746V206.374L1491.97 263.602V149.188L1591.06 91.9746Z" fill="#D9D9D9"/>
<path d="M1591.07 91.976L1491.98 149.19L1392.9 91.976L1491.98 34.748L1591.07 91.976Z" fill="white"/>
<path d="M1491.98 149.188V263.602L1392.9 206.374V91.9746L1491.98 149.188Z" fill="#ECECEC"/>
<path d="M1392.88 91.9746V206.374L1293.79 263.602V149.188L1392.88 91.9746Z" fill="#D9D9D9"/>
<path d="M1392.89 91.976L1293.8 149.19L1194.71 91.976L1293.8 34.748L1392.89 91.976Z" fill="white"/>
<path d="M1293.8 149.188V263.602L1194.71 206.374V91.9746L1293.8 149.188Z" fill="#ECECEC"/>
<path d="M1194.71 91.9746V206.374L1095.62 263.602V149.188L1194.71 91.9746Z" fill="#D9D9D9"/>
<path d="M1194.71 91.976L1095.62 149.19L996.529 91.976L1095.62 34.748L1194.71 91.976Z" fill="white"/>
<path d="M1095.62 149.188V263.602L996.529 206.374V91.9746L1095.62 149.188Z" fill="#ECECEC"/>
<path d="M996.527 91.9746V206.374L897.438 263.602V149.188L996.527 91.9746Z" fill="#D9D9D9"/>
<path d="M996.528 91.976L897.439 149.19L798.35 91.976L897.439 34.748L996.528 91.976Z" fill="white"/>
<path d="M897.439 149.188V263.602L798.35 206.374V91.9746L897.439 149.188Z" fill="#ECECEC"/>
<path d="M798.349 91.9746V206.374L699.26 263.602V149.188L798.349 91.9746Z" fill="#D9D9D9"/>
<path d="M798.351 91.976L699.261 149.19L600.172 91.976L699.261 34.748L798.351 91.976Z" fill="white"/>
<path d="M699.261 149.188V263.602L600.172 206.374V91.9746L699.261 149.188Z" fill="#ECECEC"/>
<path d="M600.169 91.9746V206.374L501.08 263.602V149.188L600.169 91.9746Z" fill="#D9D9D9"/>
<path d="M600.171 91.976L501.082 149.19L401.992 91.976L501.082 34.748L600.171 91.976Z" fill="white"/>
<path d="M501.082 149.188V263.602L401.992 206.374V91.9746L501.082 149.188Z" fill="#ECECEC"/>
<path d="M401.992 91.9746V206.374L302.902 263.602V149.188L401.992 91.9746Z" fill="#D9D9D9"/>
<path d="M401.992 91.976L302.903 149.19L203.813 91.976L302.903 34.748L401.992 91.976Z" fill="white"/>
<path d="M302.903 149.188V263.602L203.813 206.374V91.9746L302.903 149.188Z" fill="#ECECEC"/>
<path d="M203.815 91.9746V206.374L104.726 263.602V149.188L203.815 91.9746Z" fill="#D9D9D9"/>
<path d="M203.815 91.976L104.726 149.19L5.63672 91.976L104.726 34.748L203.815 91.976Z" fill="white"/>
<path d="M104.726 149.188V263.602L5.63672 206.374V91.9746L104.726 149.188Z" fill="#ECECEC"/>
<path d="M5.63527 91.9746V206.374L-93.4541 263.602V149.188L5.63527 91.9746Z" fill="#D9D9D9"/>
<path d="M5.63577 91.976L-93.4536 149.19L-192.543 91.976L-93.4536 34.748L5.63577 91.976Z" fill="white"/>
<path d="M1690.15 -79.7363V34.6774L1591.06 91.8913V-22.5084L1690.15 -79.7363Z" fill="#D9D9D9"/>
<path d="M1591.07 -22.5084V91.8913L1491.99 34.6774V-79.7363L1591.07 -22.5084Z" fill="#ECECEC"/>
<path d="M1491.97 -79.7363V34.6774L1392.88 91.8913V-22.5084L1491.97 -79.7363Z" fill="#D9D9D9"/>
<path d="M1392.89 -22.5084V91.8913L1293.81 34.6774V-79.7363L1392.89 -22.5084Z" fill="#ECECEC"/>
<path d="M1293.79 -79.7363V34.6774L1194.71 91.8913V-22.5084L1293.79 -79.7363Z" fill="#D9D9D9"/>
<path d="M1194.71 -22.5084V91.8913L1095.62 34.6774V-79.7363L1194.71 -22.5084Z" fill="#ECECEC"/>
<path d="M1095.62 -79.7363V34.6774L996.529 91.8913V-22.5084L1095.62 -79.7363Z" fill="#D9D9D9"/>
<path d="M996.531 -22.5084V91.8913L897.441 34.6774V-79.7363L996.531 -22.5084Z" fill="#ECECEC"/>
<path d="M897.439 -79.7363V34.6774L798.35 91.8913V-22.5084L897.439 -79.7363Z" fill="#D9D9D9"/>
<path d="M798.351 -22.5084V91.8913L699.262 34.6774V-79.7363L798.351 -22.5084Z" fill="#ECECEC"/>
<path d="M699.259 -79.7363V34.6774L600.17 91.8913V-22.5084L699.259 -79.7363Z" fill="#D9D9D9"/>
<path d="M600.171 -22.5084V91.8913L501.082 34.6774V-79.7363L600.171 -22.5084Z" fill="#ECECEC"/>
<path d="M501.082 -79.7363V34.6774L401.992 91.8913V-22.5084L501.082 -79.7363Z" fill="#D9D9D9"/>
<path d="M401.994 -22.5084V91.8913L302.904 34.6774V-79.7363L401.994 -22.5084Z" fill="#ECECEC"/>
<path d="M302.902 -79.7363V34.6774L203.812 91.8913V-22.5084L302.902 -79.7363Z" fill="#D9D9D9"/>
<path d="M203.813 -22.5084V91.8913L104.724 34.6774V-79.7363L203.813 -22.5084Z" fill="#ECECEC"/>
<path d="M104.722 -79.7363V34.6774L5.63281 91.8913V-22.5084L104.722 -79.7363Z" fill="#D9D9D9"/>
<path d="M5.63332 -22.5084V91.8913L-93.4561 34.6774V-79.7363L5.63332 -22.5084Z" fill="#ECECEC"/>
</g>
</g>
</g>
<defs>
<filter id="filter0_f_4745_7311" x="456.15" y="-247.266" width="1562.69" height="983.42" filterUnits="userSpaceOnUse" color-interpolation-filters="sRGB">
<feFlood flood-opacity="0" result="BackgroundImageFix"/>
<feBlend mode="normal" in="SourceGraphic" in2="BackgroundImageFix" result="shape"/>
<feGaussianBlur stdDeviation="130" result="effect1_foregroundBlur_4745_7311"/>
</filter>
<filter id="filter1_f_4745_7311" x="-710.135" y="-815.285" width="1825.06" height="1192.17" filterUnits="userSpaceOnUse" color-interpolation-filters="sRGB">
<feFlood flood-opacity="0" result="BackgroundImageFix"/>
<feBlend mode="normal" in="SourceGraphic" in2="BackgroundImageFix" result="shape"/>
<feGaussianBlur stdDeviation="130" result="effect1_foregroundBlur_4745_7311"/>
</filter>
<clipPath id="clip0_4745_7311">
<rect width="1593" height="191" fill="white"/>
</clipPath>
</defs>
</svg>
